<?xml version="1.0" encoding="UTF-8" standalone="no"?>
<!DOCTYPE svg PUBLIC "-//W3C//DTD SVG 1.1//EN"
 "http://www.w3.org/Graphics/SVG/1.1/DTD/svg11.dtd">
<!-- Generated by graphviz version 15.1.0 (20260618.0150)
 -->
<!-- Title: firstrun Pages: 1 -->
<svg width="595pt" height="1468pt"
 viewBox="0.00 0.00 595.00 1468.00" xmlns="http://www.w3.org/2000/svg" xmlns:xlink="http://www.w3.org/1999/xlink">
<g id="graph0" class="graph" transform="scale(1 1) rotate(0) translate(4 1464.48)">
<title>firstrun</title>
<polygon fill="white" stroke="none" points="-4,4 -4,-1464.48 590.85,-1464.48 590.85,4 -4,4"/>
<text xml:space="preserve" text-anchor="middle" x="293.43" y="-1420.33" font-family="Helvetica,sans-Serif" font-size="17.00">Figure D — First&#45;run journey</text>
<text xml:space="preserve" text-anchor="middle" x="293.43" y="-1400.83" font-family="Helvetica,sans-Serif" font-size="17.00">from hearing about it to the first useful message</text>
<!-- hear -->
<g id="node1" class="node">
<title>hear</title>
<ellipse fill="#e9ecef" stroke="#5c636a" stroke-width="1.8" cx="113.7" cy="-1321.61" rx="113.7" ry="45.14"/>
<text xml:space="preserve" text-anchor="middle" x="113.7" y="-1336.11" font-family="Helvetica,sans-Serif" font-size="10.00" fill="#1a1a1a">TRIGGER TO START</text>
<text xml:space="preserve" text-anchor="middle" x="113.7" y="-1324.11" font-family="Helvetica,sans-Serif" font-size="10.00" fill="#1a1a1a">Threw food away and felt bad,</text>
<text xml:space="preserve" text-anchor="middle" x="113.7" y="-1312.11" font-family="Helvetica,sans-Serif" font-size="10.00" fill="#1a1a1a">saw the cost of a shop,</text>
<text xml:space="preserve" text-anchor="middle" x="113.7" y="-1300.11" font-family="Helvetica,sans-Serif" font-size="10.00" fill="#1a1a1a">or a friend mentioned it</text>
</g>
<!-- install -->
<g id="node2" class="node">
<title>install</title>
<path fill="#d6e9f8" stroke="#0f6cbd" stroke-width="1.8" d="M159.98,-1216.73C159.98,-1216.73 67.43,-1216.73 67.43,-1216.73 61.43,-1216.73 55.43,-1210.73 55.43,-1204.73 55.43,-1204.73 55.43,-1192.73 55.43,-1192.73 55.43,-1186.73 61.43,-1180.73 67.43,-1180.73 67.43,-1180.73 159.98,-1180.73 159.98,-1180.73 165.98,-1180.73 171.98,-1186.73 171.98,-1192.73 171.98,-1192.73 171.98,-1204.73 171.98,-1204.73 171.98,-1210.73 165.98,-1216.73 159.98,-1216.73"/>
<text xml:space="preserve" text-anchor="middle" x="113.7" y="-1195.23" font-family="Helvetica,sans-Serif" font-size="10.00" fill="#1a1a1a">Installs and opens it</text>
</g>
<!-- hear&#45;&gt;install -->
<g id="edge1" class="edge">
<title>hear&#45;&gt;install</title>
<path fill="none" stroke="#5c636a" stroke-width="1.5" d="M113.7,-1275.6C113.7,-1260.34 113.7,-1243.67 113.7,-1229.86"/>
<polygon fill="#5c636a" stroke="#5c636a" stroke-width="1.5" points="117.2,-1229.9 113.7,-1219.9 110.2,-1229.9 117.2,-1229.9"/>
</g>
<!-- signup -->
<g id="node3" class="node">
<title>signup</title>
<path fill="#d6e9f8" stroke="#0f6cbd" stroke-width="1.8" d="M158.85,-1147.73C158.85,-1147.73 68.55,-1147.73 68.55,-1147.73 62.55,-1147.73 56.55,-1141.73 56.55,-1135.73 56.55,-1135.73 56.55,-1119.89 56.55,-1119.89 56.55,-1113.89 62.55,-1107.89 68.55,-1107.89 68.55,-1107.89 158.85,-1107.89 158.85,-1107.89 164.85,-1107.89 170.85,-1113.89 170.85,-1119.89 170.85,-1119.89 170.85,-1135.73 170.85,-1135.73 170.85,-1141.73 164.85,-1147.73 158.85,-1147.73"/>
<text xml:space="preserve" text-anchor="middle" x="113.7" y="-1130.31" font-family="Helvetica,sans-Serif" font-size="10.00" fill="#1a1a1a">Creates an account</text>
<text xml:space="preserve" text-anchor="middle" x="113.7" y="-1118.31" font-family="Helvetica,sans-Serif" font-size="10.00" fill="#1a1a1a">≈ 30 seconds</text>
</g>
<!-- install&#45;&gt;signup -->
<g id="edge2" class="edge">
<title>install&#45;&gt;signup</title>
<path fill="none" stroke="#0f6cbd" stroke-width="1.5" d="M113.7,-1179.98C113.7,-1173.98 113.7,-1167.08 113.7,-1160.33"/>
<polygon fill="#0f6cbd" stroke="#0f6cbd" stroke-width="1.5" points="117.2,-1160.47 113.7,-1150.47 110.2,-1160.47 117.2,-1160.47"/>
</g>
<!-- setup -->
<g id="node4" class="node">
<title>setup</title>
<path fill="#d6e9f8" stroke="#0f6cbd" stroke-width="1.8" d="M177.6,-1074.89C177.6,-1074.89 49.8,-1074.89 49.8,-1074.89 43.8,-1074.89 37.8,-1068.89 37.8,-1062.89 37.8,-1062.89 37.8,-1023.05 37.8,-1023.05 37.8,-1017.05 43.8,-1011.05 49.8,-1011.05 49.8,-1011.05 177.6,-1011.05 177.6,-1011.05 183.6,-1011.05 189.6,-1017.05 189.6,-1023.05 189.6,-1023.05 189.6,-1062.89 189.6,-1062.89 189.6,-1068.89 183.6,-1074.89 177.6,-1074.89"/>
<text xml:space="preserve" text-anchor="middle" x="113.7" y="-1057.47" font-family="Helvetica,sans-Serif" font-size="10.00" fill="#1a1a1a">Answers four questions</text>
<text xml:space="preserve" text-anchor="middle" x="113.7" y="-1045.47" font-family="Helvetica,sans-Serif" font-size="10.00" fill="#1a1a1a">household size · allergies</text>
<text xml:space="preserve" text-anchor="middle" x="113.7" y="-1033.47" font-family="Helvetica,sans-Serif" font-size="10.00" fill="#1a1a1a">dietary needs · cooking time</text>
<text xml:space="preserve" text-anchor="middle" x="113.7" y="-1021.47" font-family="Helvetica,sans-Serif" font-size="10.00" fill="#1a1a1a">≈ 60 seconds</text>
</g>
<!-- signup&#45;&gt;setup -->
<g id="edge3" class="edge">
<title>signup&#45;&gt;setup</title>
<path fill="none" stroke="#0f6cbd" stroke-width="1.5" d="M113.7,-1107.18C113.7,-1101.32 113.7,-1094.65 113.7,-1087.88"/>
<polygon fill="#0f6cbd" stroke="#0f6cbd" stroke-width="1.5" points="117.2,-1088.04 113.7,-1078.04 110.2,-1088.04 117.2,-1088.04"/>
</g>
<!-- allergy -->
<g id="node5" class="node">
<title>allergy</title>
<path fill="#d9f0de" stroke="#2e7d3a" stroke-width="1.8" d="M147.98,-972.05C147.98,-972.05 43.43,-972.05 43.43,-972.05 37.43,-972.05 31.43,-966.05 31.43,-960.05 31.43,-960.05 31.43,-944.21 31.43,-944.21 31.43,-938.21 37.43,-932.21 43.43,-932.21 43.43,-932.21 147.98,-932.21 147.98,-932.21 153.98,-932.21 159.98,-938.21 159.98,-944.21 159.98,-944.21 159.98,-960.05 159.98,-960.05 159.98,-966.05 153.98,-972.05 147.98,-972.05"/>
<text xml:space="preserve" text-anchor="middle" x="95.7" y="-954.63" font-family="Helvetica,sans-Serif" font-size="10.00" fill="#1a1a1a">Allergies are the ONLY</text>
<text xml:space="preserve" text-anchor="middle" x="95.7" y="-942.63" font-family="Helvetica,sans-Serif" font-size="10.00" fill="#1a1a1a">mandatory answer</text>
</g>
<!-- setup&#45;&gt;allergy -->
<g id="edge4" class="edge">
<title>setup&#45;&gt;allergy</title>
<path fill="none" stroke="#2e7d3a" stroke-width="1.5" stroke-dasharray="5,2" d="M107.31,-1010.4C105.61,-1002.06 103.79,-993.05 102.1,-984.7"/>
<polygon fill="#2e7d3a" stroke="#2e7d3a" stroke-width="1.5" points="105.54,-984.05 100.12,-974.94 98.68,-985.44 105.54,-984.05"/>
</g>
<!-- empty -->
<g id="node6" class="node">
<title>empty</title>
<path fill="#d6e9f8" stroke="#0f6cbd" stroke-width="1.8" d="M336.98,-978.05C336.98,-978.05 202.43,-978.05 202.43,-978.05 196.43,-978.05 190.43,-972.05 190.43,-966.05 190.43,-966.05 190.43,-938.21 190.43,-938.21 190.43,-932.21 196.43,-926.21 202.43,-926.21 202.43,-926.21 336.98,-926.21 336.98,-926.21 342.98,-926.21 348.98,-932.21 348.98,-938.21 348.98,-938.21 348.98,-966.05 348.98,-966.05 348.98,-972.05 342.98,-978.05 336.98,-978.05"/>
<text xml:space="preserve" text-anchor="middle" x="269.7" y="-960.63" font-family="Helvetica,sans-Serif" font-size="10.00" fill="#1a1a1a">Sees an empty kitchen list</text>
<text xml:space="preserve" text-anchor="middle" x="269.7" y="-948.63" font-family="Helvetica,sans-Serif" font-size="10.00" fill="#1a1a1a">with one clear instruction:</text>
<text xml:space="preserve" text-anchor="middle" x="269.7" y="-936.63" font-family="Helvetica,sans-Serif" font-size="10.00" fill="#1a1a1a">“photograph your next receipt”</text>
</g>
<!-- setup&#45;&gt;empty -->
<g id="edge5" class="edge">
<title>setup&#45;&gt;empty</title>
<path fill="none" stroke="#0f6cbd" stroke-width="1.5" d="M169.14,-1010.4C183.73,-1002.09 199.47,-993.13 214.07,-984.82"/>
<polygon fill="#0f6cbd" stroke="#0f6cbd" stroke-width="1.5" points="215.53,-988.01 222.49,-980.02 212.07,-981.93 215.53,-988.01"/>
</g>
<!-- wait1 -->
<g id="node7" class="node">
<title>wait1</title>
<path fill="#fce6cc" stroke="#c4700a" stroke-width="1.8" d="M312.23,-893.21C312.23,-893.21 227.18,-893.21 227.18,-893.21 221.18,-893.21 215.18,-887.21 215.18,-881.21 215.18,-881.21 215.18,-853.37 215.18,-853.37 215.18,-847.37 221.18,-841.37 227.18,-841.37 227.18,-841.37 312.23,-841.37 312.23,-841.37 318.23,-841.37 324.23,-847.37 324.23,-853.37 324.23,-853.37 324.23,-881.21 324.23,-881.21 324.23,-887.21 318.23,-893.21 312.23,-893.21"/>
<text xml:space="preserve" text-anchor="middle" x="269.7" y="-875.79" font-family="Helvetica,sans-Serif" font-size="10.00" fill="#1a1a1a">WAITS</text>
<text xml:space="preserve" text-anchor="middle" x="269.7" y="-863.79" font-family="Helvetica,sans-Serif" font-size="10.00" fill="#1a1a1a">until the next shop</text>
<text xml:space="preserve" text-anchor="middle" x="269.7" y="-851.79" font-family="Helvetica,sans-Serif" font-size="10.00" fill="#1a1a1a">— up to 7 days —</text>
</g>
<!-- empty&#45;&gt;wait1 -->
<g id="edge6" class="edge">
<title>empty&#45;&gt;wait1</title>
<path fill="none" stroke="#c4700a" stroke-width="1.5" d="M269.7,-925.38C269.7,-919.3 269.7,-912.69 269.7,-906.2"/>
<polygon fill="#c4700a" stroke="#c4700a" stroke-width="1.5" points="273.2,-906.3 269.7,-896.3 266.2,-906.3 273.2,-906.3"/>
</g>
<!-- drop1 -->
<g id="node8" class="node">
<title>drop1</title>
<path fill="#f8d9da" stroke="#a82a2f" stroke-width="1.8" d="M305.23,-798.87C305.23,-798.87 172.18,-798.87 172.18,-798.87 166.18,-798.87 160.18,-792.87 160.18,-786.87 160.18,-786.87 160.18,-771.03 160.18,-771.03 160.18,-765.03 166.18,-759.03 172.18,-759.03 172.18,-759.03 305.23,-759.03 305.23,-759.03 311.23,-759.03 317.23,-765.03 317.23,-771.03 317.23,-771.03 317.23,-786.87 317.23,-786.87 317.23,-792.87 311.23,-798.87 305.23,-798.87"/>
<text xml:space="preserve" text-anchor="middle" x="238.7" y="-781.45" font-family="Helvetica,sans-Serif" font-size="10.00" fill="#1a1a1a">DROPS OUT</text>
<text xml:space="preserve" text-anchor="middle" x="238.7" y="-769.45" font-family="Helvetica,sans-Serif" font-size="10.00" fill="#1a1a1a">forgets before shopping again</text>
</g>
<!-- wait1&#45;&gt;drop1 -->
<g id="edge7" class="edge">
<title>wait1&#45;&gt;drop1</title>
<path fill="none" stroke="#a82a2f" stroke-width="1.5" d="M260.57,-840.85C257.22,-831.52 253.38,-820.84 249.87,-811.07"/>
<polygon fill="#a82a2f" stroke="#a82a2f" stroke-width="1.5" points="253.25,-810.1 246.57,-801.87 246.66,-812.47 253.25,-810.1"/>
<text xml:space="preserve" text-anchor="middle" x="268.08" y="-816.82" font-family="Helvetica,sans-Serif" font-size="9.00" fill="#a82a2f">forgets</text>
</g>
<!-- first -->
<g id="node9" class="node">
<title>first</title>
<path fill="#d6e9f8" stroke="#0f6cbd" stroke-width="1.8" d="M499.98,-796.95C499.98,-796.95 359.43,-796.95 359.43,-796.95 353.43,-796.95 347.43,-790.95 347.43,-784.95 347.43,-784.95 347.43,-772.95 347.43,-772.95 347.43,-766.95 353.43,-760.95 359.43,-760.95 359.43,-760.95 499.98,-760.95 499.98,-760.95 505.98,-760.95 511.98,-766.95 511.98,-772.95 511.98,-772.95 511.98,-784.95 511.98,-784.95 511.98,-790.95 505.98,-796.95 499.98,-796.95"/>
<text xml:space="preserve" text-anchor="middle" x="429.7" y="-775.45" font-family="Helvetica,sans-Serif" font-size="10.00" fill="#1a1a1a">Photographs the FIRST receipt</text>
</g>
<!-- wait1&#45;&gt;first -->
<g id="edge8" class="edge">
<title>wait1&#45;&gt;first</title>
<path fill="none" stroke="#0f6cbd" stroke-width="1.5" d="M317.27,-840.62C339.08,-828.85 364.76,-815 386.06,-803.5"/>
<polygon fill="#0f6cbd" stroke="#0f6cbd" stroke-width="1.5" points="387.63,-806.63 394.77,-798.81 384.3,-800.47 387.63,-806.63"/>
<text xml:space="preserve" text-anchor="middle" x="376.41" y="-816.82" font-family="Helvetica,sans-Serif" font-size="9.00" fill="#0f6cbd">shops</text>
</g>
<!-- build -->
<g id="node10" class="node">
<title>build</title>
<path fill="#d9f0de" stroke="#2e7d3a" stroke-width="1.8" d="M475.23,-726.03C475.23,-726.03 384.18,-726.03 384.18,-726.03 378.18,-726.03 372.18,-720.03 372.18,-714.03 372.18,-714.03 372.18,-698.19 372.18,-698.19 372.18,-692.19 378.18,-686.19 384.18,-686.19 384.18,-686.19 475.23,-686.19 475.23,-686.19 481.23,-686.19 487.23,-692.19 487.23,-698.19 487.23,-698.19 487.23,-714.03 487.23,-714.03 487.23,-720.03 481.23,-726.03 475.23,-726.03"/>
<text xml:space="preserve" text-anchor="middle" x="429.7" y="-708.61" font-family="Helvetica,sans-Serif" font-size="10.00" fill="#1a1a1a">Kitchen list appears</text>
<text xml:space="preserve" text-anchor="middle" x="429.7" y="-696.61" font-family="Helvetica,sans-Serif" font-size="10.00" fill="#1a1a1a">≈ 3 seconds</text>
</g>
<!-- first&#45;&gt;build -->
<g id="edge9" class="edge">
<title>first&#45;&gt;build</title>
<path fill="none" stroke="#2e7d3a" stroke-width="1.5" d="M429.7,-760.08C429.7,-753.64 429.7,-746.18 429.7,-738.92"/>
<polygon fill="#2e7d3a" stroke="#2e7d3a" stroke-width="1.5" points="433.2,-739 429.7,-729 426.2,-739 433.2,-739"/>
</g>
<!-- cold -->
<g id="node11" class="node">
<title>cold</title>
<path fill="#d9f0de" stroke="#2e7d3a" stroke-width="1.8" d="M487.23,-653.19C487.23,-653.19 372.18,-653.19 372.18,-653.19 366.18,-653.19 360.18,-647.19 360.18,-641.19 360.18,-641.19 360.18,-601.35 360.18,-601.35 360.18,-595.35 366.18,-589.35 372.18,-589.35 372.18,-589.35 487.23,-589.35 487.23,-589.35 493.23,-589.35 499.23,-595.35 499.23,-601.35 499.23,-601.35 499.23,-641.19 499.23,-641.19 499.23,-647.19 493.23,-653.19 487.23,-653.19"/>
<text xml:space="preserve" text-anchor="middle" x="429.7" y="-635.77" font-family="Helvetica,sans-Serif" font-size="10.00" fill="#1a1a1a">COLD START</text>
<text xml:space="preserve" text-anchor="middle" x="429.7" y="-623.77" font-family="Helvetica,sans-Serif" font-size="10.00" fill="#1a1a1a">No history yet, so it uses</text>
<text xml:space="preserve" text-anchor="middle" x="429.7" y="-611.77" font-family="Helvetica,sans-Serif" font-size="10.00" fill="#1a1a1a">typical figures for a</text>
<text xml:space="preserve" text-anchor="middle" x="429.7" y="-599.77" font-family="Helvetica,sans-Serif" font-size="10.00" fill="#1a1a1a">household this size</text>
</g>
<!-- build&#45;&gt;cold -->
<g id="edge10" class="edge">
<title>build&#45;&gt;cold</title>
<path fill="none" stroke="#2e7d3a" stroke-width="1.5" d="M429.7,-685.48C429.7,-679.62 429.7,-672.95 429.7,-666.18"/>
<polygon fill="#2e7d3a" stroke="#2e7d3a" stroke-width="1.5" points="433.2,-666.34 429.7,-656.34 426.2,-666.34 433.2,-666.34"/>
</g>
<!-- gap -->
<g id="node12" class="node">
<title>gap</title>
<path fill="#f8d9da" stroke="#a82a2f" stroke-width="1.8" d="M488.35,-556.35C488.35,-556.35 371.05,-556.35 371.05,-556.35 365.05,-556.35 359.05,-550.35 359.05,-544.35 359.05,-544.35 359.05,-492.51 359.05,-492.51 359.05,-486.51 365.05,-480.51 371.05,-480.51 371.05,-480.51 488.35,-480.51 488.35,-480.51 494.35,-480.51 500.35,-486.51 500.35,-492.51 500.35,-492.51 500.35,-544.35 500.35,-544.35 500.35,-550.35 494.35,-556.35 488.35,-556.35"/>
<text xml:space="preserve" text-anchor="middle" x="429.7" y="-538.93" font-family="Helvetica,sans-Serif" font-size="10.00" fill="#1a1a1a">THE RISKY GAP</text>
<text xml:space="preserve" text-anchor="middle" x="429.7" y="-526.93" font-family="Helvetica,sans-Serif" font-size="10.00" fill="#1a1a1a">2–4 days of silence</text>
<text xml:space="preserve" text-anchor="middle" x="429.7" y="-514.93" font-family="Helvetica,sans-Serif" font-size="10.00" fill="#1a1a1a">before anything is at risk.</text>
<text xml:space="preserve" text-anchor="middle" x="429.7" y="-502.93" font-family="Helvetica,sans-Serif" font-size="10.00" fill="#1a1a1a">The user has no evidence</text>
<text xml:space="preserve" text-anchor="middle" x="429.7" y="-490.93" font-family="Helvetica,sans-Serif" font-size="10.00" fill="#1a1a1a">the app does anything</text>
</g>
<!-- cold&#45;&gt;gap -->
<g id="edge11" class="edge">
<title>cold&#45;&gt;gap</title>
<path fill="none" stroke="#a82a2f" stroke-width="1.5" d="M429.7,-588.64C429.7,-582.44 429.7,-575.79 429.7,-569.16"/>
<polygon fill="#a82a2f" stroke="#a82a2f" stroke-width="1.5" points="433.2,-569.23 429.7,-559.23 426.2,-569.23 433.2,-569.23"/>
</g>
<!-- bridge -->
<g id="node13" class="node">
<title>bridge</title>
<path fill="#fce6cc" stroke="#c4700a" stroke-width="1.8" d="M518.35,-438.01C518.35,-438.01 341.05,-438.01 341.05,-438.01 335.05,-438.01 329.05,-432.01 329.05,-426.01 329.05,-426.01 329.05,-374.17 329.05,-374.17 329.05,-368.17 335.05,-362.17 341.05,-362.17 341.05,-362.17 518.35,-362.17 518.35,-362.17 524.35,-362.17 530.35,-368.17 530.35,-374.17 530.35,-374.17 530.35,-426.01 530.35,-426.01 530.35,-432.01 524.35,-438.01 518.35,-438.01"/>
<text xml:space="preserve" text-anchor="middle" x="429.7" y="-420.59" font-family="Helvetica,sans-Serif" font-size="10.00" fill="#1a1a1a">BRIDGING THE GAP</text>
<text xml:space="preserve" text-anchor="middle" x="429.7" y="-408.59" font-family="Helvetica,sans-Serif" font-size="10.00" fill="#1a1a1a">· Show days remaining immediately</text>
<text xml:space="preserve" text-anchor="middle" x="429.7" y="-396.59" font-family="Helvetica,sans-Serif" font-size="10.00" fill="#1a1a1a">· Flag the 2–3 riskiest items on day one</text>
<text xml:space="preserve" text-anchor="middle" x="429.7" y="-384.59" font-family="Helvetica,sans-Serif" font-size="10.00" fill="#1a1a1a">· Say plainly when the first</text>
<text xml:space="preserve" text-anchor="middle" x="429.7" y="-372.59" font-family="Helvetica,sans-Serif" font-size="10.00" fill="#1a1a1a"> &#160;message is expected</text>
</g>
<!-- gap&#45;&gt;bridge -->
<g id="edge12" class="edge">
<title>gap&#45;&gt;bridge</title>
<path fill="none" stroke="#c4700a" stroke-width="1.5" d="M429.7,-479.66C429.7,-470.42 429.7,-460.4 429.7,-450.7"/>
<polygon fill="#c4700a" stroke="#c4700a" stroke-width="1.5" points="433.2,-450.95 429.7,-440.95 426.2,-450.95 433.2,-450.95"/>
<text xml:space="preserve" text-anchor="middle" x="454.45" y="-455.96" font-family="Helvetica,sans-Serif" font-size="9.00" fill="#c4700a">mitigated by</text>
</g>
<!-- msg1 -->
<g id="node14" class="node">
<title>msg1</title>
<path fill="#d9f0de" stroke="#2e7d3a" stroke-width="1.8" d="M511.23,-329.17C511.23,-329.17 348.18,-329.17 348.18,-329.17 342.18,-329.17 336.18,-323.17 336.18,-317.17 336.18,-317.17 336.18,-301.33 336.18,-301.33 336.18,-295.33 342.18,-289.33 348.18,-289.33 348.18,-289.33 511.23,-289.33 511.23,-289.33 517.23,-289.33 523.23,-295.33 523.23,-301.33 523.23,-301.33 523.23,-317.17 523.23,-317.17 523.23,-323.17 517.23,-329.17 511.23,-329.17"/>
<text xml:space="preserve" text-anchor="middle" x="429.7" y="-311.75" font-family="Helvetica,sans-Serif" font-size="10.00" fill="#1a1a1a">FIRST REAL MESSAGE ARRIVES</text>
<text xml:space="preserve" text-anchor="middle" x="429.7" y="-299.75" font-family="Helvetica,sans-Serif" font-size="10.00" fill="#1a1a1a">naming actual items</text>
</g>
<!-- bridge&#45;&gt;msg1 -->
<g id="edge13" class="edge">
<title>bridge&#45;&gt;msg1</title>
<path fill="none" stroke="#2e7d3a" stroke-width="1.5" d="M429.7,-361.42C429.7,-355.01 429.7,-348.42 429.7,-342.19"/>
<polygon fill="#2e7d3a" stroke="#2e7d3a" stroke-width="1.5" points="433.2,-342.33 429.7,-332.33 426.2,-342.33 433.2,-342.33"/>
</g>
<!-- judge -->
<g id="node15" class="node">
<title>judge</title>
<polygon fill="#fce6cc" stroke="#c4700a" stroke-width="1.8" points="429.7,-256.33 327.4,-228.49 429.7,-200.65 532,-228.49 429.7,-256.33"/>
<text xml:space="preserve" text-anchor="middle" x="429.7" y="-224.99" font-family="Helvetica,sans-Serif" font-size="10.00" fill="#1a1a1a">Was that useful?</text>
</g>
<!-- msg1&#45;&gt;judge -->
<g id="edge14" class="edge">
<title>msg1&#45;&gt;judge</title>
<path fill="none" stroke="#c4700a" stroke-width="1.5" d="M429.7,-288.78C429.7,-282.81 429.7,-276 429.7,-269.17"/>
<polygon fill="#c4700a" stroke="#c4700a" stroke-width="1.5" points="433.2,-269.33 429.7,-259.33 426.2,-269.33 433.2,-269.33"/>
</g>
<!-- keep -->
<g id="node16" class="node">
<title>keep</title>
<path fill="#d6e9f8" stroke="#0f6cbd" stroke-width="1.8" d="M406.98,-158.15C406.98,-158.15 278.43,-158.15 278.43,-158.15 272.43,-158.15 266.43,-152.15 266.43,-146.15 266.43,-146.15 266.43,-118.31 266.43,-118.31 266.43,-112.31 272.43,-106.31 278.43,-106.31 278.43,-106.31 406.98,-106.31 406.98,-106.31 412.98,-106.31 418.98,-112.31 418.98,-118.31 418.98,-118.31 418.98,-146.15 418.98,-146.15 418.98,-152.15 412.98,-158.15 406.98,-158.15"/>
<text xml:space="preserve" text-anchor="middle" x="342.7" y="-140.73" font-family="Helvetica,sans-Serif" font-size="10.00" fill="#1a1a1a">KEEPS USING IT</text>
<text xml:space="preserve" text-anchor="middle" x="342.7" y="-128.73" font-family="Helvetica,sans-Serif" font-size="10.00" fill="#1a1a1a">photographs the next receipt</text>
<text xml:space="preserve" text-anchor="middle" x="342.7" y="-116.73" font-family="Helvetica,sans-Serif" font-size="10.00" fill="#1a1a1a">without being reminded</text>
</g>
<!-- judge&#45;&gt;keep -->
<g id="edge15" class="edge">
<title>judge&#45;&gt;keep</title>
<path fill="none" stroke="#0f6cbd" stroke-width="1.5" d="M409.52,-205.63C399.18,-194.43 386.35,-180.52 374.7,-167.9"/>
<polygon fill="#0f6cbd" stroke="#0f6cbd" stroke-width="1.5" points="377.37,-165.63 368.02,-160.66 372.23,-170.38 377.37,-165.63"/>
<text xml:space="preserve" text-anchor="middle" x="395.94" y="-176.1" font-family="Helvetica,sans-Serif" font-size="9.00" fill="#0f6cbd">yes</text>
</g>
<!-- drop2 -->
<g id="node17" class="node">
<title>drop2</title>
<path fill="#f8d9da" stroke="#a82a2f" stroke-width="1.8" d="M574.85,-158.15C574.85,-158.15 460.55,-158.15 460.55,-158.15 454.55,-158.15 448.55,-152.15 448.55,-146.15 448.55,-146.15 448.55,-118.31 448.55,-118.31 448.55,-112.31 454.55,-106.31 460.55,-106.31 460.55,-106.31 574.85,-106.31 574.85,-106.31 580.85,-106.31 586.85,-112.31 586.85,-118.31 586.85,-118.31 586.85,-146.15 586.85,-146.15 586.85,-152.15 580.85,-158.15 574.85,-158.15"/>
<text xml:space="preserve" text-anchor="middle" x="517.7" y="-140.73" font-family="Helvetica,sans-Serif" font-size="10.00" fill="#1a1a1a">DROPS OUT</text>
<text xml:space="preserve" text-anchor="middle" x="517.7" y="-128.73" font-family="Helvetica,sans-Serif" font-size="10.00" fill="#1a1a1a">suggestion felt irrelevant,</text>
<text xml:space="preserve" text-anchor="middle" x="517.7" y="-116.73" font-family="Helvetica,sans-Serif" font-size="10.00" fill="#1a1a1a">or arrived too late</text>
</g>
<!-- judge&#45;&gt;drop2 -->
<g id="edge16" class="edge">
<title>judge&#45;&gt;drop2</title>
<path fill="none" stroke="#a82a2f" stroke-width="1.5" d="M450.11,-205.63C460.57,-194.43 473.56,-180.52 485.34,-167.9"/>
<polygon fill="#a82a2f" stroke="#a82a2f" stroke-width="1.5" points="487.84,-170.35 492.11,-160.65 482.72,-165.57 487.84,-170.35"/>
<text xml:space="preserve" text-anchor="middle" x="484.22" y="-176.1" font-family="Helvetica,sans-Serif" font-size="9.00" fill="#a82a2f">no</text>
</g>
<!-- habit -->
<g id="node18" class="node">
<title>habit</title>
<ellipse fill="#d9f0de" stroke="#2e7d3a" stroke-width="1.8" cx="342.7" cy="-36.66" rx="112.11" ry="36.66"/>
<text xml:space="preserve" text-anchor="middle" x="342.7" y="-45.16" font-family="Helvetica,sans-Serif" font-size="10.00" fill="#1a1a1a">HABIT FORMED</text>
<text xml:space="preserve" text-anchor="middle" x="342.7" y="-33.16" font-family="Helvetica,sans-Serif" font-size="10.00" fill="#1a1a1a">by roughly the third receipt</text>
<text xml:space="preserve" text-anchor="middle" x="342.7" y="-21.16" font-family="Helvetica,sans-Serif" font-size="10.00" fill="#1a1a1a">the app knows this household</text>
</g>
<!-- keep&#45;&gt;habit -->
<g id="edge17" class="edge">
<title>keep&#45;&gt;habit</title>
<path fill="none" stroke="#2e7d3a" stroke-width="1.5" d="M342.7,-105.66C342.7,-99.57 342.7,-92.88 342.7,-86.14"/>
<polygon fill="#2e7d3a" stroke="#2e7d3a" stroke-width="1.5" points="346.2,-86.34 342.7,-76.34 339.2,-86.34 346.2,-86.34"/>
</g>
<!-- legend -->
<g id="node19" class="node">
<title>legend</title>
<polygon fill="none" stroke="black" points="265.45,-1363.73 265.45,-1389.48 411.95,-1389.48 411.95,-1363.73 265.45,-1363.73"/>
<text xml:space="preserve" text-anchor="start" x="270.45" y="-1372.18" font-family="Helvetica,sans-Serif" font-weight="bold" font-size="14.00">First&#45;run journey</text>
<polygon fill="#e9ecef" stroke="none" points="265.45,-1341.73 265.45,-1363.73 283.45,-1363.73 283.45,-1341.73 265.45,-1341.73"/>
<polygon fill="none" stroke="black" points="265.45,-1341.73 265.45,-1363.73 283.45,-1363.73 283.45,-1341.73 265.45,-1341.73"/>
<polygon fill="none" stroke="black" points="283.45,-1341.73 283.45,-1363.73 411.95,-1363.73 411.95,-1341.73 283.45,-1341.73"/>
<text xml:space="preserve" text-anchor="start" x="288.45" y="-1348.98" font-family="Helvetica,sans-Serif" font-size="10.00">Outside the app</text>
<polygon fill="#d6e9f8" stroke="none" points="265.45,-1319.73 265.45,-1341.73 283.45,-1341.73 283.45,-1319.73 265.45,-1319.73"/>
<polygon fill="none" stroke="black" points="265.45,-1319.73 265.45,-1341.73 283.45,-1341.73 283.45,-1319.73 265.45,-1319.73"/>
<polygon fill="none" stroke="black" points="283.45,-1319.73 283.45,-1341.73 411.95,-1341.73 411.95,-1319.73 283.45,-1319.73"/>
<text xml:space="preserve" text-anchor="start" x="288.45" y="-1326.98" font-family="Helvetica,sans-Serif" font-size="10.00">User is in the app</text>
<polygon fill="#d9f0de" stroke="none" points="265.45,-1297.73 265.45,-1319.73 283.45,-1319.73 283.45,-1297.73 265.45,-1297.73"/>
<polygon fill="none" stroke="black" points="265.45,-1297.73 265.45,-1319.73 283.45,-1319.73 283.45,-1297.73 265.45,-1297.73"/>
<polygon fill="none" stroke="black" points="283.45,-1297.73 283.45,-1319.73 411.95,-1319.73 411.95,-1297.73 283.45,-1297.73"/>
<text xml:space="preserve" text-anchor="start" x="288.45" y="-1304.98" font-family="Helvetica,sans-Serif" font-size="10.00">System acting alone</text>
<polygon fill="#fce6cc" stroke="none" points="265.45,-1275.73 265.45,-1297.73 283.45,-1297.73 283.45,-1275.73 265.45,-1275.73"/>
<polygon fill="none" stroke="black" points="265.45,-1275.73 265.45,-1297.73 283.45,-1297.73 283.45,-1275.73 265.45,-1275.73"/>
<polygon fill="none" stroke="black" points="283.45,-1275.73 283.45,-1297.73 411.95,-1297.73 411.95,-1275.73 283.45,-1275.73"/>
<text xml:space="preserve" text-anchor="start" x="288.45" y="-1282.98" font-family="Helvetica,sans-Serif" font-size="10.00">Decision point or mitigation</text>
<polygon fill="#f8d9da" stroke="none" points="265.45,-1253.73 265.45,-1275.73 283.45,-1275.73 283.45,-1253.73 265.45,-1253.73"/>
<polygon fill="none" stroke="black" points="265.45,-1253.73 265.45,-1275.73 283.45,-1275.73 283.45,-1253.73 265.45,-1253.73"/>
<polygon fill="none" stroke="black" points="283.45,-1253.73 283.45,-1275.73 411.95,-1275.73 411.95,-1253.73 283.45,-1253.73"/>
<text xml:space="preserve" text-anchor="start" x="288.45" y="-1260.98" font-family="Helvetica,sans-Serif" font-size="10.00">User is lost here</text>
</g>
</g>
</svg>
